<svg xmlns="http://www.w3.org/2000/svg" viewBox="0 0 48 48">
  <rect width="48" height="48" rx="10" fill="#F7FAF8"/>
  <g>
    <rect x="4.2" y="4.2" width="6.8" height="6.8" rx="1.6" fill="#10B986"/>
    <rect x="12.2" y="4.2" width="6.8" height="6.8" rx="1.6" fill="#10B986"/>
    <rect x="20.2" y="4.2" width="6.8" height="6.8" rx="1.6" fill="#10B986"/>
    <rect x="28.2" y="4.2" width="6.8" height="6.8" rx="1.6" fill="#10B986"/>
    <rect x="4.2" y="12.2" width="6.8" height="6.8" rx="1.6" fill="#10B986"/>
    <rect x="28.2" y="12.2" width="6.8" height="6.8" rx="1.6" fill="#40E6B1" opacity="0.75"/>
    <rect x="4.2" y="20.2" width="6.8" height="6.8" rx="1.6" fill="#10B986"/>
    <rect x="12.2" y="20.2" width="6.8" height="6.8" rx="1.6" fill="#10B986"/>
    <rect x="20.2" y="20.2" width="6.8" height="6.8" rx="1.6" fill="#10B986"/>
    <rect x="4.2" y="28.2" width="6.8" height="6.8" rx="1.6" fill="#10B986"/>
    <rect x="4.2" y="36.2" width="6.8" height="6.8" rx="1.6" fill="#0FAE7E"/>
    <rect x="38.4" y="1.5" width="5.4" height="5.4" rx="1.3" fill="#40E6B1"/>
  </g>
</svg>
